{"title":"The.Devils.Advocate.1997.UNRATED.DC.1080p.BluRay.x264-ULSHD","uid":11870196,"size":11039091890,"categoryP":"video","categoryS":"hd___movies","magnet":"?xt=urn:btih:efefff2d0e08aaea949606e2e17d4e94ad0d9722&amp;dn=The.Devils.Advocate.1997.UNRATED.DC.1080p.BluRay.x264-ULSHD&amp;tr=udp%3A%2F%2Ftracker.openbittorrent.com%3A80&amp;tr=udp%3A%2F%2Fopen.demonii.com%3A1337&amp;tr=udp%3A%2F%2Ftracker.coppersurfer.tk%3A6969&amp;tr=udp%3A%2F%2Fexodus.desync.com%3A6969","seeders":0,"leechers":2,"uploader":"vickey1992","files":3,"time":1430405141,"description":"Video\nID                                       : 1\nFormat                                   : AVC\nFormat/Info                              : Advanced Video Codec\nFormat profile                           : &lt;a class=&quot;__cf_email__&quot; href=&quot;/cdn-cgi/l/email-protection&quot; data-cfemail=&quot;753d1c121d3539415b44&quot;&gt;[email&amp;#160;protected]&lt;/a&gt;&lt;script cf-hash='f9e31' type=&quot;text/javascript&quot;&gt;\n/* &lt;![CDATA[ */!function(){try{var t=&quot;currentScript&quot;in document?document.currentScript:function(){for(var t=document.getElementsByTagName(&quot;script&quot;),e=t.length;e--;)if(t[e].getAttribute(&quot;cf-hash&quot;))return t[e]}();if(t&amp;&amp;t.previousSibling){var e,r,n,i,c=t.previousSibling,a=c.getAttribute(&quot;data-cfemail&quot;);if(a){for(e=&quot;&quot;,r=parseInt(a.substr(0,2),16),n=2;a.length-n;n+=2)i=parseInt(a.substr(n,2),16)^r,e+=String.fromCharCode(i);e=document.createTextNode(e),c.parentNode.replaceChild(e,c)}}}catch(u){}}();/* ]]&gt; */&lt;/script&gt;\nFormat settings, CABAC                   : Yes\nFormat settings, ReFrames                : 5 frames\nCodec ID                                 : V_MPEG4/ISO/AVC\nDuration                                 : 2h 23mn\nBit rate                                 : 8 720 Kbps\nWidth                                    : 1 920 pixels\nHeight                                   : 800 pixels\nDisplay aspect ratio                     : 2.40:1\nFrame rate mode                          : Constant\nFrame rate                               : 23.976 fps\nColor space                              : YUV\nChroma subsampling                       : 4:2:0\nBit depth                                : 8 bits\nScan type                                : Progressive\nBits/(Pixel*Frame)                       : 0.237\nStream size                              : 8.56 GiB (83%)\nWriting library                          : x264 core 125 r2208 d9d2288\nEncoding settings                        : cabac=1 / ref=5 / deblock=1:0:0 / analyse=0x3:0x113 / me=umh / subme=8 / psy=1 / psy_rd=1.00:0.00 / mixed_ref=1 / me_range=16 / chroma_me=1 / trellis=1 / 8x8dct=1 / cqm=0 / deadzone=21,11 / fast_pskip=1 / chroma_qp_offset=-2 / threads=12 / lookahead_threads=2 / sliced_threads=0 / nr=0 / decimate=1 / interlaced=0 / bluray_compat=0 / constrained_intra=0 / bframes=3 / b_pyramid=2 / b_adapt=2 / b_bias=0 / direct=3 / weightb=1 / open_gop=0 / weightp=2 / keyint=240 / keyint_min=24 / scenecut=40 / intra_refresh=0 / rc_lookahead=50 / rc=2pass / mbtree=1 / bitrate=8720 / ratetol=1.0 / qcomp=0.60 / qpmin=0 / qpmax=69 / qpstep=4 / cplxblur=20.0 / qblur=0.5 / ip_ratio=1.40 / aq=1:1.00\nLanguage                                 : English\nDefault                                  : Yes\nForced                                   : No\n\nAudio\nID                                       : 2\nFormat                                   : DTS\nFormat/Info                              : Digital Theater Systems\nMode                                     : 16\nFormat settings, Endianness              : Big\nCodec ID                                 : A_DTS\nDuration                                 : 2h 23mn\nBit rate mode                            : Constant\nBit rate                                 : 1 509 Kbps\nChannel(s)                               : 6 channels\nChannel positions                        : Front: L C R, Side: L R, LFE\nSampling rate                            : 48.0 KHz\nBit depth                                : 24 bits\nCompression mode                         : Lossy\nStream size                              : 1.52 GiB (15%)\nTitle                                    : English DTS 1509kbps\nLanguage                                 : English\nDefault                                  : Yes\nForced                                   : No\n\nMenu\n00:00:00.000                             : en:00:00:00.000\n00:03:25.205                             : en:00:03:25.205\n00:04:57.506                             : en:00:04:57.506\n00:09:07.213                             : en:00:09:07.213\n00:12:06.225                             : en:00:12:06.225\n00:14:58.856                             : en:00:14:58.856\n00:18:13.592                             : en:00:18:13.592\n00:20:52.585                             : en:00:20:52.585\n00:26:20.621                             : en:00:26:20.621\n00:30:09.016                             : en:00:30:09.016\n00:33:45.482                             : en:00:33:45.482\n00:36:10.960                             : en:00:36:10.960\n00:38:31.851                             : en:00:38:31.851\n00:41:35.785                             : en:00:41:35.785\n00:46:58.858                             : en:00:46:58.858\n00:49:17.121                             : en:00:49:17.121\n00:53:22.658                             : en:00:53:22.658\n00:56:24.339                             : en:00:56:24.339\n00:58:35.971                             : en:00:58:35.971\n01:03:40.316                             : en:01:03:40.316\n01:06:08.590                             : en:01:06:08.590\n01:10:25.012                             : en:01:10:25.012\n01:12:54.287                             : en:01:12:54.287\n01:14:30.675                             : en:01:14:30.675\n01:17:15.297                             : en:01:17:15.297\n01:19:17.378                             : en:01:19:17.378\n01:22:14.388                             : en:01:22:14.388\n01:25:59.988                             : en:01:25:59.988\n01:28:50.033                             : en:01:28:50.033\n01:33:36.152                             : en:01:33:36.152\n01:38:52.635                             : en:01:38:52.635\n01:43:14.355                             : en:01:43:14.355\n01:45:40.960                             : en:01:45:40.960\n01:48:28.377                             : en:01:48:28.377\n01:53:21.253                             : en:01:53:21.253\n01:55:40.350                             : en:01:55:40.350\n01:56:59.137                             : en:01:56:59.137\n02:01:48.134                             : en:02:01:48.134\n02:05:55.798                             : en:02:05:55.798\n02:09:59.792                             : en:02:09:59.792\n02:12:23.853                             : en:02:12:23.853\n02:13:40.095                             : en:02:13:40.095\n02:16:36.647                             : en:02:16:36.647","torrent":{"xt":"urn:btih:efefff2d0e08aaea949606e2e17d4e94ad0d9722","amp;dn":"The.Devils.Advocate.1997.UNRATED.DC.1080p.BluRay.x264-ULSHD","amp;tr":["udp%3A%2F%2Ftracker.openbittorrent.com%3A80","udp%3A%2F%2Fopen.demonii.com%3A1337","udp%3A%2F%2Ftracker.coppersurfer.tk%3A6969","udp%3A%2F%2Fexodus.desync.com%3A6969"],"infoHash":"efefff2d0e08aaea949606e2e17d4e94ad0d9722","infoHashBuffer":{"type":"Buffer","data":[239,239,255,45,14,8,170,234,148,150,6,226,225,125,78,148,173,13,151,34]},"announce":[],"urlList":[]}}